PathFileType  4	(X/Y/Z) C:\Users\antoi\Documents\MyRepositories\mobilecap\ResultsAnalysis
DataRate	CameraRate	NumFrames	NumMarkers	Units	OrigDataRate	OrigDataStartFrame	OrigNumFrames
100.0	100.0	5	51	mm	100.0	32	125
Frame#	Time	r_knee			r_shank_antsup			r_ankle			r_calc			r_5meta			r_toe			L_knee			L_shank_antsup			L_ankle			L_calc			L_5meta			L_toe			r_sh2			r_sh3			r_sh4			L_sh2			L_sh3			r_thigh1			r_thigh2			r_thigh3			r_thigh4			r_thigh5			L_thigh1			L_thigh2			L_thigh3			L_thigh4			r.ASIS			r.PSIS			L.ASIS			L.PSIS			C7			R_Shoulder			L_Shoulder			R_Sternum			L_Sternum			R_humerus			R_elbow_med			R_elbow_lat			R_forearm			R_wrist_radius			R_wrist_ulna			L_humerus			L_elbow_med			L_elbow_lat			L_forearm			L_wrist_radius			L_wrist_ulna			R_HJC			L_HJC			R_HJC_reg			L_HJC_reg			
		X1	Y1	Z1	X2	Y2	Z2	X3	Y3	Z3	X4	Y4	Z4	X5	Y5	Z5	X6	Y6	Z6	X7	Y7	Z7	X8	Y8	Z8	X9	Y9	Z9	X10	Y10	Z10	X11	Y11	Z11	X12	Y12	Z12	X13	Y13	Z13	X14	Y14	Z14	X15	Y15	Z15	X16	Y16	Z16	X17	Y17	Z17	X18	Y18	Z18	X19	Y19	Z19	X20	Y20	Z20	X21	Y21	Z21	X22	Y22	Z22	X23	Y23	Z23	X24	Y24	Z24	X25	Y25	Z25	X26	Y26	Z26	X27	Y27	Z27	X28	Y28	Z28	X29	Y29	Z29	X30	Y30	Z30	X31	Y31	Z31	X32	Y32	Z32	X33	Y33	Z33	X34	Y34	Z34	X35	Y35	Z35	X36	Y36	Z36	X37	Y37	Z37	X38	Y38	Z38	X39	Y39	Z39	X40	Y40	Z40	X41	Y41	Z41	X42	Y42	Z42	X43	Y43	Z43	X44	Y44	Z44	X45	Y45	Z45	X46	Y46	Z46	X47	Y47	Z47	X48	Y48	Z48	X49	Y49	Z49	X50	Y50	Z50	X51	Y51	Z51	

32	0.31000000	229.79392	462.03006	-126.48705	229.30004	387.22828	-110.06123	164.37407	94.59204	-174.30108	90.87133	63.46404	-212.99994	262.75814	44.70013	-150.45995	306.16653	62.56465	-207.43445	368.43866	489.43333	-398.26207	367.97734	414.01730	-396.31861	157.21390	189.10357	-358.19178	82.01927	204.85882	-311.03297	200.41756	90.40397	-376.58404	255.45506	84.96792	-323.85814	212.89784	276.16725	-116.58594	155.92026	397.68639	-121.53884	130.98520	285.98337	-133.99176	299.53244	468.09251	-419.29903	232.28563	366.25663	-413.15318	306.23283	777.46484	-108.81784	314.16446	662.54500	-110.68100	265.73251	637.79048	-69.66804	209.51854	769.90784	-47.45438	208.60735	654.01146	-65.64502	325.55251	777.70437	-398.96914	382.21473	654.83522	-403.84606	218.69525	733.22407	-421.65744	286.77248	606.15554	-417.68688	288.21179	923.36626	-110.35451	102.98171	937.68490	-178.59532	280.77064	922.83798	-364.99215	97.10843	929.60264	-285.48701	172.47221	1406.83964	-225.13724	232.11026	1345.83485	-76.28571	218.59520	1352.02788	-392.00029	283.78951	1317.34559	-214.03566	281.66864	1317.99609	-258.42205	259.07443	1109.05424	1.22957	210.30673	1001.59273	-38.40806	241.75678	1023.81777	24.03138	321.10206	927.63854	21.71934	371.22632	819.56930	12.20188	335.88803	802.96144	33.31035	246.56885	1223.63434	-450.78232	181.30305	1011.43226	-424.15831	191.35420	1025.31353	-484.97801	245.85080	933.00364	-514.33777	270.57270	808.80748	-516.68453	235.81935	798.99019	-528.22291	224.09368	846.61304	-135.21508	221.53578	847.59857	-335.49549	226.32721	849.42610	-137.14063	217.12785	836.77033	-304.53948	
33	0.32000000	234.45604	461.99920	-126.54148	232.83224	387.25466	-110.12948	164.78642	95.17369	-174.47400	91.30181	64.28813	-213.16436	262.89308	44.60974	-150.44129	306.50024	62.18626	-207.36034	389.59845	492.80527	-396.29350	392.26505	417.93205	-395.47279	195.57025	179.79239	-360.52411	119.22837	189.73105	-313.51452	245.60660	84.63697	-379.98323	300.94250	82.48565	-327.06199	215.13230	276.40098	-116.63019	159.66748	398.52652	-121.88376	133.46090	287.08684	-134.40362	320.54454	468.29226	-417.32020	259.47449	362.58499	-412.85707	317.29484	776.35726	-108.21520	323.29585	661.30463	-110.08624	274.00469	637.40307	-69.69759	219.95718	770.25232	-47.42360	217.32181	654.31070	-66.07677	341.45682	780.12161	-398.34986	400.61821	658.43387	-401.77482	235.96658	733.64768	-422.88672	306.12243	607.92747	-417.83378	300.80579	922.95136	-109.58252	116.07078	937.87180	-179.44543	293.06796	922.41443	-364.24621	110.58460	929.66738	-286.38280	186.37154	1406.93263	-225.89954	245.95057	1346.34655	-77.10935	232.23664	1351.82436	-392.84479	297.52436	1317.51082	-214.73488	295.35925	1318.02315	-259.11842	275.14033	1110.26981	1.29566	227.12886	1002.01780	-37.62162	258.94851	1024.84745	24.51404	340.55561	930.67076	20.63473	393.81883	824.25394	9.57192	359.25804	806.52364	31.03008	258.17556	1222.87976	-451.73593	189.53253	1011.96283	-424.41290	199.31672	1025.68358	-485.36300	250.54351	932.12143	-515.87094	271.32629	807.47500	-519.09340	236.37401	798.57838	-530.07892	236.30409	846.42057	-135.10244	234.51912	847.29865	-335.39291	238.26390	849.35395	-136.50731	229.67319	836.50856	-303.95154	
34	0.33000000	239.25772	461.91959	-126.56507	236.50793	387.23971	-110.15650	165.14068	95.77216	-174.62379	91.73996	65.16286	-213.31915	263.02428	44.52239	-150.40802	306.82351	61.80795	-207.28116	409.78954	495.55316	-394.18101	415.58355	421.48322	-394.59211	234.57059	170.42806	-362.72790	157.60348	174.28423	-315.83782	291.30078	79.44072	-383.33944	346.81841	80.69608	-330.31271	217.41059	276.60438	-116.63235	163.56172	399.35584	-122.17361	136.04683	288.19062	-134.76291	340.55411	467.70808	-415.22020	286.32216	358.35314	-412.42271	328.27425	775.05495	-107.76189	332.40533	659.92736	-109.67371	282.22656	636.90945	-69.78914	230.48153	770.42545	-47.41904	226.09391	654.47120	-66.57045	356.80241	782.06817	-397.86991	418.35764	661.32783	-399.62197	252.86796	733.75660	-423.92602	324.81156	609.22111	-417.73648	313.49986	922.28881	-108.85320	129.18870	937.74650	-180.32662	305.33175	921.60675	-363.66143	124.10707	929.38151	-287.27982	200.31707	1406.71333	-226.67774	259.84613	1346.42411	-77.92664	245.97866	1351.27016	-393.75076	311.29053	1317.31256	-215.46781	309.14591	1317.72525	-259.85776	291.23464	1111.06016	1.30945	243.91285	1002.02936	-36.76621	276.18930	1025.50100	25.00353	359.84438	933.29749	19.46680	416.10397	828.59258	6.90213	382.30879	809.77062	28.73002	269.86868	1221.82792	-452.72443	197.83868	1012.25855	-424.76753	207.43000	1025.80839	-485.78506	255.43328	931.10339	-517.32111	272.35323	806.13980	-521.30920	237.26627	798.19562	-531.79106	248.60366	845.95914	-135.02567	247.49924	846.62634	-335.31829	250.23564	848.95272	-135.91489	242.27571	835.84708	-303.48411	
35	0.34000000	244.23150	461.79288	-126.57729	240.38533	387.17776	-110.16901	165.45877	96.39372	-174.75130	92.18147	66.07297	-213.46328	263.15137	44.43702	-150.36588	307.14253	61.43777	-207.19840	428.95502	497.62643	-392.00276	437.89149	424.58794	-393.65618	274.16163	161.21059	-364.77919	197.14772	158.78505	-317.92998	337.35986	75.00194	-386.61238	392.90818	79.77130	-333.58269	219.81413	276.77252	-116.61668	167.66292	400.16593	-122.39660	138.78658	289.29449	-135.04331	359.64581	466.18994	-413.11550	312.87879	353.50950	-411.89709	339.25408	773.56436	-107.44633	341.52623	658.41477	-109.43719	290.46762	636.28879	-69.94814	241.13590	770.43270	-47.47318	234.93565	654.50675	-67.11012	371.66164	783.50402	-397.53372	435.41687	663.43574	-397.41652	269.37953	733.53754	-424.72245	342.78799	609.98816	-417.36429	326.33917	921.40702	-108.19255	142.35394	937.34078	-181.23530	318.06315	920.62855	-363.30032	137.70234	928.77061	-288.17598	214.29761	1406.20677	-227.46455	273.80216	1346.08759	-78.73593	259.81454	1350.39013	-394.70075	325.10841	1316.75761	-216.22571	323.04941	1317.10924	-260.62603	307.34353	1111.44681	1.25448	260.66414	1001.64530	-35.85985	293.47976	1025.79861	25.48218	378.97647	935.52866	18.19766	438.05131	832.56611	4.18803	405.04344	812.70133	26.41628	281.66220	1220.50951	-453.73369	206.28245	1012.33468	-425.18589	215.71249	1025.71811	-486.22023	260.56349	929.95946	-518.68002	273.66589	804.77534	-523.32525	238.52410	797.84675	-533.36593	261.11550	845.25316	-135.03891	260.74384	845.74217	-335.32617	262.44850	848.35062	-135.39810	255.15444	834.90287	-303.18699	
36	0.35000000	249.39854	461.61822	-126.60052	244.48882	387.06320	-110.19428	165.77497	97.04416	-174.86978	92.63081	67.01071	-213.60355	263.27392	44.35322	-150.32468	307.46205	61.07865	-207.11408	447.05341	498.97217	-389.84614	459.15620	427.17566	-392.66049	314.25569	152.34771	-366.64682	237.82462	143.51887	-319.71284	383.63925	71.50979	-389.75581	439.03438	79.89886	-336.83458	222.40090	276.90367	-116.60867	172.00267	400.94931	-122.56447	141.69928	290.39786	-135.24664	377.94150	463.62913	-411.11478	339.18164	348.04748	-411.32175	350.29744	771.89490	-107.24691	350.67568	656.78024	-109.34512	298.80971	635.52640	-70.18588	251.94651	770.27636	-47.60493	243.86214	654.43409	-67.67174	386.16983	784.37300	-397.30378	451.78723	664.67996	-395.19936	285.47217	732.96379	-425.23020	359.96949	610.17884	-416.70115	339.34070	920.31863	-107.63841	155.59156	936.68796	-182.16873	331.70100	919.65007	-363.19659	151.39049	927.86530	-289.07364	228.30699	1405.43658	-228.25678	287.82380	1345.36751	-79.54223	273.73113	1349.21810	-395.67311	338.99596	1315.85983	-216.99775	337.06964	1316.18417	-261.40724	323.45955	1111.46185	1.11614	277.39030	1000.89638	-34.93430	310.80666	1025.76688	25.92502	397.96558	937.38862	16.82817	459.62845	836.16182	1.43123	427.45509	815.32321	24.09454	293.57277	1218.95685	-454.74718	214.92383	1012.20638	-425.63393	224.18444	1025.44339	-486.64983	265.97518	928.70935	-519.94524	275.28632	803.36403	-525.15241	240.17942	797.53749	-534.81363	273.92946	844.31766	-135.18701	274.47877	844.77838	-335.46211	275.07828	847.66001	-134.99445	268.47874	833.78522	-303.08473	
